<svg width="11" height="10" viewBox="0 0 11 10" fill="none" xmlns="http://www.w3.org/2000/svg">
<path d="M3.97922 0.199951H7.21922L8.29922 1.26662H10.4592C10.6024 1.26662 10.7398 1.32281 10.8411 1.42283C10.9423 1.52285 10.9992 1.6585 10.9992 1.79995V9.26662C10.9992 9.40807 10.9423 9.54372 10.8411 9.64374C10.7398 9.74376 10.6024 9.79995 10.4592 9.79995H0.739219C0.596002 9.79995 0.458651 9.74376 0.357381 9.64374C0.256111 9.54372 0.199219 9.40807 0.199219 9.26662V1.79995C0.199219 1.6585 0.256111 1.52285 0.357381 1.42283C0.458651 1.32281 0.596002 1.26662 0.739219 1.26662H2.89922L3.97922 0.199951ZM5.59922 8.73328C6.45852 8.73328 7.28263 8.39614 7.89025 7.79603C8.49786 7.19591 8.83922 6.38198 8.83922 5.53328C8.83922 4.68459 8.49786 3.87066 7.89025 3.27054C7.28263 2.67043 6.45852 2.33328 5.59922 2.33328C4.73992 2.33328 3.91581 2.67043 3.30819 3.27054C2.70058 3.87066 2.35922 4.68459 2.35922 5.53328C2.35922 6.38198 2.70058 7.19591 3.30819 7.79603C3.91581 8.39614 4.73992 8.73328 5.59922 8.73328ZM5.59922 7.66662C5.02635 7.66662 4.47695 7.44186 4.07187 7.04178C3.66679 6.6417 3.43922 6.09908 3.43922 5.53328C3.43922 4.96749 3.66679 4.42487 4.07187 4.02479C4.47695 3.62471 5.02635 3.39995 5.59922 3.39995C6.17209 3.39995 6.72149 3.62471 7.12657 4.02479C7.53165 4.42487 7.75922 4.96749 7.75922 5.53328C7.75922 6.09908 7.53165 6.6417 7.12657 7.04178C6.72149 7.44186 6.17209 7.66662 5.59922 7.66662Z" fill="white"/>
</svg>
