<svg width="13" height="12" viewBox="0 0 13 12" fill="none" xmlns="http://www.w3.org/2000/svg">
<path opacity="0.5" fill-rule="evenodd" clip-rule="evenodd" d="M2.7887 0C1.78357 0 0.96875 0.81482 0.96875 1.81995V10.0097C0.96875 11.0149 1.78357 11.8297 2.7887 11.8297H10.9785C11.9836 11.8297 12.7984 11.0149 12.7984 10.0097V1.81995C12.7984 0.814821 11.9836 0 10.9785 0H2.7887ZM7.79358 4.54989C7.03973 4.54989 6.42862 5.161 6.42862 5.91485C6.42862 6.6687 7.03974 7.27982 7.79358 7.27982H9.61354C10.3674 7.27982 10.9785 6.6687 10.9785 5.91485C10.9785 5.161 10.3674 4.54989 9.61354 4.54989H7.79358Z" fill="white"/>
</svg>
