<svg width="14" height="14" viewBox="0 0 14 14" fill="none" xmlns="http://www.w3.org/2000/svg">
<path opacity="0.5" d="M7 0C10.864 0 14 3.136 14 7C14 10.864 10.864 14 7 14C3.136 14 0 10.864 0 7C0 3.136 3.136 0 7 0ZM2.8161 9.3912C3.8437 10.9242 5.3865 11.9 7.112 11.9C8.8368 11.9 10.3803 10.9249 11.4072 9.3912C10.2422 8.30242 8.70656 7.69777 7.112 7.7C5.5172 7.69759 3.98126 8.30225 2.8161 9.3912ZM7 6.3C7.55695 6.3 8.0911 6.07875 8.48492 5.68492C8.87875 5.2911 9.1 4.75695 9.1 4.2C9.1 3.64305 8.87875 3.1089 8.48492 2.71508C8.0911 2.32125 7.55695 2.1 7 2.1C6.44305 2.1 5.9089 2.32125 5.51508 2.71508C5.12125 3.1089 4.9 3.64305 4.9 4.2C4.9 4.75695 5.12125 5.2911 5.51508 5.68492C5.9089 6.07875 6.44305 6.3 7 6.3Z" fill="white"/>
</svg>
