<svg width="12" height="13" viewBox="0 0 12 13" fill="none" xmlns="http://www.w3.org/2000/svg">
<path opacity="0.5" d="M12 9.34839C11.9997 10.2006 11.7193 11.0271 11.205 11.6912C10.6908 12.3552 9.97359 12.817 9.1722 13L8.7894 11.8073C9.13994 11.7473 9.47331 11.6074 9.76548 11.3975C10.0576 11.1876 10.3013 10.9129 10.479 10.5934H9C8.68174 10.5934 8.37652 10.4621 8.15147 10.2284C7.92643 9.99467 7.8 9.67767 7.8 9.34714V6.85457C7.8 6.52403 7.92643 6.20704 8.15147 5.97331C8.37652 5.73959 8.68174 5.60828 9 5.60828H10.7628C10.6164 4.40368 10.0518 3.29597 9.17486 2.49299C8.29796 1.69001 7.16907 1.24696 6 1.24696C4.83093 1.24696 3.70204 1.69001 2.82514 2.49299C1.94825 3.29597 1.38362 4.40368 1.2372 5.60828H3C3.31826 5.60828 3.62348 5.73959 3.84853 5.97331C4.07357 6.20704 4.2 6.52403 4.2 6.85457V9.34714C4.2 9.67767 4.07357 9.99467 3.84853 10.2284C3.62348 10.4621 3.31826 10.5934 3 10.5934H1.2C0.88174 10.5934 0.576515 10.4621 0.351472 10.2284C0.126428 9.99467 0 9.67767 0 9.34714V6.23143C0 2.78981 2.6862 0 6 0C9.3138 0 12 2.78981 12 6.23143V9.34839Z" fill="white"/>
</svg>
