<svg width="17" height="17" viewBox="0 0 17 17" fill="none" xmlns="http://www.w3.org/2000/svg">
<g opacity="0.5">
<path d="M1.41602 5.72917V1.83333C1.41602 1.64547 1.49064 1.4653 1.62348 1.33247C1.75632 1.19963 1.93649 1.125 2.12435 1.125H14.8743C15.0622 1.125 15.2424 1.19963 15.3752 1.33247C15.5081 1.4653 15.5827 1.64547 15.5827 1.83333V5.72917C15.113 5.72917 14.6626 5.91574 14.3305 6.24783C13.9984 6.57993 13.8118 7.03035 13.8118 7.5C13.8118 7.96965 13.9984 8.42007 14.3305 8.75217C14.6626 9.08426 15.113 9.27083 15.5827 9.27083V13.1667C15.5827 13.3545 15.5081 13.5347 15.3752 13.6675C15.2424 13.8004 15.0622 13.875 14.8743 13.875H2.12435C1.93649 13.875 1.75632 13.8004 1.62348 13.6675C1.49064 13.5347 1.41602 13.3545 1.41602 13.1667V9.27083C1.88567 9.27083 2.33609 9.08426 2.66818 8.75217C3.00028 8.42007 3.18685 7.96965 3.18685 7.5C3.18685 7.03035 3.00028 6.57993 2.66818 6.24783C2.33609 5.91574 1.88567 5.72917 1.41602 5.72917ZM6.37435 5.375V6.79167H10.6243V5.375H6.37435ZM6.37435 8.20833V9.625H10.6243V8.20833H6.37435Z" fill="white"/>
</g>
</svg>
